{
  "accessors": [
    {
      "bufferView": 2,
      "componentType": 5126,
      "count": 29,
      "max": [
        0.4640190005302429,
        -0.01822200044989586,
        5.027413845062256
      ],
      "min": [
        -0.4640209972858429,
        -0.5907130241394043,
        4.241001129150391
      ],
      "type": "VEC3"
    },
    {
      "bufferView": 2,
      "byteOffset": 348,
      "componentType": 5126,
      "count": 29,
      "max": [
        0.9245126247406006,
        0.05426741763949394,
        0.9669466614723206
      ],
      "min": [
        -0.9281911253929138,
        -0.9299345016479492,
        -0.3722446858882904
      ],
      "type": "VEC3"
    },
    {
      "bufferView": 1,
      "componentType": 5126,
      "count": 29,
      "max": [
        0.5907130241394043,
        0.10063699632883072
      ],
      "min": [
        0.28217101097106934,
        -0.4968000054359436
      ],
      "type": "VEC2"
    },
    {
      "bufferView": 0,
      "componentType": 5125,
      "count": 78,
      "type": "SCALAR"
    },
    {
      "bufferView": 2,
      "byteOffset": 696,
      "componentType": 5126,
      "count": 2938,
      "max": [
        1.7569780349731445,
        0.628055989742279,
        5.281320095062256
      ],
      "min": [
        -1.7569780349731445,
        -0.7899680137634277,
        -0.001256000017747283
      ],
      "type": "VEC3"
    },
    {
      "bufferView": 2,
      "byteOffset": 35952,
      "componentType": 5126,
      "count": 2938,
      "max": [
        0.9999909996986389,
        0.9997494220733643,
        0.9999760389328003
      ],
      "min": [
        -0.9999909996986389,
        -1.0,
        -1.0
      ],
      "type": "VEC3"
    },
    {
      "bufferView": 1,
      "byteOffset": 232,
      "componentType": 5126,
      "count": 2938,
      "max": [
        0.9981380105018616,
        0.5612450242042542
      ],
      "min": [
        0.0015460000140592456,
        -0.9986900091171265
      ],
      "type": "VEC2"
    },
    {
      "bufferView": 0,
      "byteOffset": 312,
      "componentType": 5125,
      "count": 8634,
      "type": "SCALAR"
    }
  ],
  "asset": {
    "extras": {
      "author": "guinavarro.al (https://sketchfab.com/guinavarro.al)",
      "license": "CC-BY-4.0 (http://creativecommons.org/licenses/by/4.0/)",
      "source": "https://sketchfab.com/3d-models/hiro-hamada-big-hero-6-bot-fight-3be429042dae45a1bc2cf05cceda970b",
      "title": "Hiro Hamada (Big Hero 6 Bot Fight)"
    },
    "generator": "Sketchfab-15.37.0",
    "version": "2.0"
  },
  "bufferViews": [
    {
      "buffer": 0,
      "byteLength": 34848,
      "name": "floatBufferViews",
      "target": 34963
    },
    {
      "buffer": 0,
      "byteLength": 23736,
      "byteOffset": 34848,
      "byteStride": 8,
      "name": "floatBufferViews",
      "target": 34962
    },
    {
      "buffer": 0,
      "byteLength": 71208,
      "byteOffset": 58584,
      "byteStride": 12,
      "name": "floatBufferViews",
      "target": 34962
    }
  ],
  "buffers": [
    {
      "byteLength": 129792,
      "uri": "scene.bin"
    }
  ],
  "images": [
    {
      "uri": "textures/Hiro_1k_col_baseColor.png"
    },
    {
      "uri": "textures/Hiro_1k_col_helmet_glass_baseColor.png"
    }
  ],
  "materials": [
    {
      "doubleSided": true,
      "name": "Hiro_1k_col",
      "pbrMetallicRoughness": {
        "baseColorTexture": {
          "index": 0
        },
        "metallicFactor": 0.0,
        "roughnessFactor": 0.8434915419926713
      }
    },
    {
      "doubleSided": true,
      "name": "Hiro_1k_col_helmet_glass",
      "pbrMetallicRoughness": {
        "baseColorTexture": {
          "index": 1
        },
        "metallicFactor": 0.0,
        "roughnessFactor": 0.8434915419926713
      }
    }
  ],
  "meshes": [
    {
      "name": "Object_0",
      "primitives": [
        {
          "attributes": {
            "NORMAL": 1,
            "POSITION": 0,
            "TEXCOORD_0": 2
          },
          "indices": 3,
          "material": 1,
          "mode": 4
        }
      ]
    },
    {
      "name": "Object_1",
      "primitives": [
        {
          "attributes": {
            "NORMAL": 5,
            "POSITION": 4,
            "TEXCOORD_0": 6
          },
          "indices": 7,
          "material": 0,
          "mode": 4
        }
      ]
    }
  ],
  "nodes": [
    {
      "children": [
        1
      ],
      "matrix": [
        1.0,
        0.0,
        0.0,
        0.0,
        0.0,
        2.220446049250313e-16,
        -1.0,
        0.0,
        0.0,
        1.0,
        2.220446049250313e-16,
        0.0,
        0.0,
        0.0,
        0.0,
        1.0
      ],
      "name": "Sketchfab_model"
    },
    {
      "children": [
        2,
        3
      ],
      "name": "hiro.obj.cleaner.materialmerger.gles"
    },
    {
      "mesh": 0,
      "name": "Object_2"
    },
    {
      "mesh": 1,
      "name": "Object_3"
    }
  ],
  "samplers": [
    {
      "magFilter": 9729,
      "minFilter": 9987,
      "wrapS": 10497,
      "wrapT": 10497
    }
  ],
  "scene": 0,
  "scenes": [
    {
      "name": "Sketchfab_Scene",
      "nodes": [
        0
      ]
    }
  ],
  "textures": [
    {
      "sampler": 0,
      "source": 0
    },
    {
      "sampler": 0,
      "source": 1
    }
  ]
}
